<svg xmlns="http://www.w3.org/2000/svg" viewBox="0 0 54 19.7" width="54" height="20"><path d="M4.8 4.9l-1-2.5-1 2.5m24.9-1c-.2.1-.5.1-.8.1h-1.8V2.6H27c.3 0 .5 0 .7.1s.3.3.3.6-.1.5-.3.6zm13.2 1l-1-2.5-1 2.5zM16.4 7.6h-1.6v-5l-2.2 5h-1.3l-2.2-5v5H6l-.6-1.4H2.2l-.6 1.4H0l2.7-6.3H5l2.6 6v-6H10l2 4.3 1.8-4.3h2.5zm6.2 0h-5.1V1.3h5.1v1.3H19v1.1h3.5V5H19v1.3h3.5v1.3zM29.7 3c0 1-.7 1.5-1.1 1.7.3.1.6.3.8.5.2.3.3.6.3 1.2v1.2h-1.5v-.8c0-.4 0-.9-.2-1.2-.2-.2-.6-.3-1.1-.3h-1.6v2.3h-1.5V1.3h3.5c.8 0 1.3 0 1.8.3.3.3.6.7.6 1.4zm2.4 4.6h-1.5V1.3h1.5zm18 0H48l-2.9-4.8v4.8H42l-.6-1.4h-3.2l-.6 1.4h-1.8c-.7 0-1.7-.2-2.2-.7s-.8-1.3-.8-2.4c0-.9.2-1.8.8-2.5.5-.5 1.3-.7 2.3-.7h1.5v1.3H36c-.6 0-.9.1-1.2.4s-.4.8-.4 1.4c0 .7.1 1.2.4 1.5.2.3.7.3 1.1.3h.7l2.1-5H41l2.6 6v-6h2.3l2.7 4.4V1.2h1.6v6.4zM0 8.9h2.6l.6-1.4h1.3l.6 1.4h5.1V7.8l.5 1.1h2.6l.5-1.1v1.1h12.7V6.6h.2c.2 0 .2 0 .2.3v2h6.6v-.5c.5.3 1.4.5 2.4.5h2.8l.6-1.4h1.3l.6 1.4h5.3V7.6l.8 1.3h4.3V0h-4.2v1l-.6-1h-4.3v1L42 0h-5.8c-1 0-1.8.1-2.5.5V0h-4v.5c-.4-.4-1-.5-1.7-.5H12.9l-1 2.3-1-2.3H6.3v1l-.5-1h-4L0 4.2zm53.9 4.7h-2.8c-.3 0-.5 0-.6.1-.2.1-.2.3-.2.5a.55.55 0 0 0 .3.5c.2.1.3.1.6.1h.8c.8 0 1.4.2 1.7.5.1 0 .1.1.1.2m.1 2.2c-.4.5-1.1.8-2.1.8H49v-1.4h2.9c.3 0 .5 0 .6-.2.1-.1.2-.2.2-.4s-.1-.3-.2-.4-.3-.1-.5-.1c-1.4 0-3.2 0-3.2-2 0-.9.6-1.9 2.2-1.9h3v-1.3h-2.8c-.8 0-1.5.2-1.9.5v-.5h-4.2c-.7 0-1.4.2-1.8.5v-.5h-7.4v.5c-.6-.4-1.6-.5-2-.5H29v.5c-.5-.5-1.5-.5-2.1-.5h-5.5l-1.3 1.4-1.2-1.4h-8.2v8.9h8l1.3-1.4 1.2 1.4h4.9v-2.1h.5c.7 0 1.4 0 2.1-.3v2.4h4.1v-2.3h.2c.3 0 .3 0 .3.3v2h12.4c.8 0 1.6-.2 2.1-.6v.6h3.9c.8 0 1.6-.1 2.2-.4zm-6-2.5c.3.3.5.7.5 1.3 0 1.4-.9 2-2.4 2h-3v-1.4h2.9c.3 0 .5 0 .6-.2.1-.1.2-.2.2-.4s-.1-.3-.2-.4-.3-.1-.5-.1c-1.4 0-3.2 0-3.2-2 0-.9.6-1.9 2.2-1.9h3v1.5h-2.8c-.3 0-.5 0-.6.1-.2.1-.2.3-.2.5a.55.55 0 0 0 .3.5c.2.1.3.1.6.1h.8c.9-.1 1.4.1 1.8.4zm-13.7-.4c-.2.1-.5.1-.7.1h-1.8v-1.4h1.9c.3 0 .5 0 .7.1s.3.3.3.6c-.1.3-.2.5-.4.6zm.9.8c.3.1.6.3.7.5.2.3.2.6.3 1.2v1.3h-1.5v-.8c0-.4 0-.9-.2-1.2-.2-.2-.6-.3-1.1-.3h-1.6v2.3h-1.5v-6.3h3.5c.8 0 1.3 0 1.8.3s.8.7.8 1.4c-.1.9-.8 1.4-1.2 1.6zm1.9-3.4h5.1v1.3h-3.6v1.2H42V16h-3.5v1.3h3.6v1.3H37zm-10.2 2.9h-2v-1.6h2c.5 0 .9.2.9.8 0 .5-.3.8-.9.8zM23.3 18L21 15.4l2.3-2.5zm-6-.8h-3.7v-1.3h3.3v-1.3h-3.3v-1.2h3.8l1.7 1.8zm12.1-2.9c0 1.8-1.3 2.1-2.6 2.1h-1.9v2.2H22l-2-2.1-1.9 2.1h-6v-6.3h6.1l1.9 2.1 1.9-2.1h4.8c1.2-.1 2.6.2 2.6 2z" fill="#fff"/></svg>