<svg xmlns="http://www.w3.org/2000/svg" viewBox="0 0 72 66"><path d="M19.1 12.7l-2.9 13H12l3.2-13.9C15.8 9 18 7.2 18 7.2c2.2-1.7 5-1.7 5-1.7h5.3c0-.8.6-1.4.6-1.4.6-.6 1.4-.6 1.4-.6h12.1c.8 0 1.4.6 1.4.6.6.6.6 1.4.6 1.4h5.3c2.8 0 5 1.7 5 1.7 2.2 1.7 2.8 4.5 2.8 4.5l3.2 13.9h-4.2l-2.9-13c-.3-1.4-1.4-2.3-1.4-2.3-1.1-.9-2.5-.9-2.5-.9h-5.3c0 .8-.6 1.4-.6 1.4-.6.6-1.4.6-1.4.6H30.3c-.8 0-1.4-.6-1.4-.6-.6-.6-.6-1.4-.6-1.4H23c-1.4 0-2.5.9-2.5.9-1.1 1-1.4 2.4-1.4 2.4zM55.5 51l1-13.1c.1-.8-.5-1.5-.5-1.5-.6-.6-1.4-.7-1.4-.7-.8-.1-1.5.5-1.5.5-.6.6-.7 1.4-.7 1.4l-1 13.1c-.1.8.5 1.5.5 1.5a2.66 2.66 0 0 0 1.4.7h.2c.8 0 1.4-.5 1.4-.5.5-.6.6-1.4.6-1.4zm-11.1-.2V37.7c0-.8-.6-1.4-.6-1.4-.6-.6-1.4-.6-1.4-.6-.8 0-1.4.6-1.4.6-.6.6-.6 1.4-.6 1.4v13.1c0 .8.6 1.4.6 1.4.6.6 1.4.6 1.4.6.8 0 1.4-.6 1.4-.6.6-.6.6-1.4.6-1.4zm-12.1 0V37.7c0-.8-.6-1.4-.6-1.4-.6-.6-1.4-.6-1.4-.6-.8 0-1.4.6-1.4.6-.6.6-.6 1.4-.6 1.4v13.1c0 .8.6 1.4.6 1.4.6.6 1.4.6 1.4.6.8 0 1.4-.6 1.4-.6.6-.6.6-1.4.6-1.4zm-12.9 2c.8-.1 1.4-.7 1.4-.7.6-.6.5-1.5.5-1.5l-1-13.1c-.1-.8-.7-1.4-.7-1.4-.6-.6-1.5-.5-1.5-.5-.8.1-1.4.7-1.4.7-.6.6-.5 1.5-.5 1.5l1 13.1c.1.8.6 1.3.6 1.3.6.5 1.4.5 1.4.5h.2zm45.1-25.1c1.7 0 2.8 1.2 2.8 1.2 1.2 1.2 1.2 2.8 1.2 2.8 0 1.7-1.2 2.8-1.2 2.8-1.2 1.2-2.8 1.2-2.8 1.2H64l-3.6 20.8c-.3 1.4-1.4 2.4-1.4 2.4-1.1.9-2.6.9-2.6.9H16.2c-1.4 0-2.6-.9-2.6-.9-1.1-.9-1.4-2.4-1.4-2.4L8.6 35.7h-.5c-1.7 0-2.8-1.2-2.8-1.2-1.2-1.2-1.2-2.8-1.2-2.8 0-1.7 1.2-2.8 1.2-2.8 1.2-1.2 2.8-1.2 2.8-1.2h56.4z" fill="#fff"/></svg>