<?xml version="1.0" encoding="UTF-8" standalone="no"?>
<svg
   xmlns:dc="http://purl.org/dc/elements/1.1/"
   xmlns:cc="http://creativecommons.org/ns#"
   xmlns:rdf="http://www.w3.org/1999/02/22-rdf-syntax-ns#"
   xmlns:svg="http://www.w3.org/2000/svg"
   xmlns="http://www.w3.org/2000/svg"
   xmlns:xlink="http://www.w3.org/1999/xlink"
   xmlns:sodipodi="http://sodipodi.sourceforge.net/DTD/sodipodi-0.dtd"
   xmlns:inkscape="http://www.inkscape.org/namespaces/inkscape"
   height="18.5"
   width="187.12553"
   id="svg61"
   version="1.1"
   viewBox="0 0 185.98694 18.5"
   sodipodi:docname="feefo-head.svg"
   inkscape:version="0.92.3 (2405546, 2018-03-11)">
  <sodipodi:namedview
     pagecolor="#ffffff"
     bordercolor="#666666"
     borderopacity="1"
     objecttolerance="10"
     gridtolerance="10"
     guidetolerance="10"
     inkscape:pageopacity="0"
     inkscape:pageshadow="2"
     inkscape:window-width="1920"
     inkscape:window-height="978"
     id="namedview17"
     showgrid="false"
     inkscape:pagecheckerboard="true"
     inkscape:zoom="1.8276501"
     inkscape:cx="93.562767"
     inkscape:cy="9.25"
     inkscape:window-x="0"
     inkscape:window-y="27"
     inkscape:window-maximized="1"
     inkscape:current-layer="svg61" />
  <metadata
     id="metadata65">
    <rdf:RDF>
      <cc:Work
         rdf:about="">
        <dc:format>image/svg+xml</dc:format>
        <dc:type
           rdf:resource="http://purl.org/dc/dcmitype/StillImage" />
        <dc:title></dc:title>
      </cc:Work>
    </rdf:RDF>
  </metadata>
  <style
     id="style2"><![CDATA[.A{fill:#F9D904}.C{fill:#3F4143}]]></style>
  <path
     style="fill:#f9d904;stroke-width:1.20147693"
     id="path4"
     class="A"
     d="m 95.364757,7.4471502 h 6.848413 L 96.686376,11.412024 98.849043,17.9 93.202095,13.814978 87.795449,17.9 89.837959,11.412024 84.431313,7.4471502 h 6.728271 l 2.042511,-6.4879757 z m 21.145993,0 h 6.72826 L 117.71222,11.412024 119.87488,17.9 114.34809,13.814978 108.94145,17.9 l 2.0425,-6.487976 -5.52679,-3.9648738 h 6.84842 l 2.04251,-6.4879757 z m 21.02584,0 h 6.84842 L 138.85822,11.412024 141.02087,17.9 135.49408,13.814978 130.08744,17.9 l 2.0425,-6.487976 -5.52679,-3.9648738 h 6.84842 l 2.04251,-6.4879757 z m 21.146,0 h 6.72827 l -5.40665,3.9648738 2.04251,6.487976 -5.40664,-4.085022 -5.5268,4.085022 2.16266,-6.487976 -5.52679,-3.9648738 h 6.84841 l 2.04252,-6.4879757 z M 184.51434,9.00907 181.1502,11.412024 183.19272,17.9 177.78607,13.814978 172.25928,17.9 174.42194,11.412024 168.775,7.4471502 h 6.84841 l 2.16266,-6.4879757 2.04251,6.4879757 h 4.68576 z" />
  <path
     style="fill:#ffffff;stroke-width:1.20147693"
     id="path6"
     d="m 184.51434,9.00907 2.04251,-1.5619198 h -2.04251 z" />
  <use
     transform="translate(-2.8686878,-2.6)"
     height="100%"
     width="100%"
     y="0"
     x="0"
     style="fill:#ffffff"
     id="use8"
     class="C"
     xlink:href="#B" />
  <use
     transform="translate(-2.8686878,-2.6)"
     height="100%"
     width="100%"
     y="0"
     style="fill:#ffffff"
     id="use10"
     class="C"
     x="14.8"
     xlink:href="#B" />
  <path
     style="fill:#ffffff"
     id="path12"
     d="M 1.1313122,7.7 V 18 h 3.8 V 7.7 h 1.6 v -3 h -1.6 V 4.4 c 0,-1.2 0.3,-1.6 1.4,-1.6 h 0.1 V 0.2 h -0.6 c -3.2,0 -4.7,1.2 -4.7,4 v 0.6 h -1.50000002 v 3 H 1.1313122 Z m 35.8000008,0 V 18 h 3.8 V 7.7 h 1.6 v -3 h -1.6 V 4.4 c 0,-1.2 0.3,-1.6 1.4,-1.6 h 0.1 V 0.2 h -0.6 c -3.3,0 -4.8,1.3 -4.8,4.1 v 0.5 h -1.4 v 3 h 1.5 z m 15.4,3.7 c 0,1.8 -1.4,3.3 -3.2,3.3 -1.7,0 -3.2,-1.4 -3.2,-3.3 0,-1.9 1.4,-3.3 3.2,-3.3 1.8,0 3.2,1.5 3.2,3.3 m 3.9,-0.1 c 0,-1.8 -0.8,-3.7 -2.1,-5 -1.3,-1.3 -3,-2 -4.9,-2 -1.8,0 -3.5,0.8 -4.9,2.1 -1.3,1.3 -2,3 -2,4.9 0,1.9 0.7,3.5 2,4.9 1.4,1.4 3,2.1 5,2.1 2,0 3.7,-0.7 5,-2.1 1.2,-1.2 1.9,-2.9 1.9,-4.9"
     class="C" />
  <path
     style="fill:#f9d904"
     id="path14"
     d="m 62.231313,9.2 c -1.9,-0.1 -3.4,-1.6 -3.5,-3.5 h 8.2 V 5.6 c 0,-3.2 -2.1,-5.4 -4.9,-5.4 -3,0 -5,2.2 -5,5 0,2.7 2.1,5.1 5,5.1 2.1,0 3.8,-1.1 4.7,-3.3 h -0.8 c -0.6,1.3 -1.9,2.1 -3.3,2.1 -0.3,0.1 -0.3,0.1 -0.4,0.1 m 10.4,0 c 1.9,-0.1 3.4,-1.6 3.5,-3.5 h -8.2 V 5.6 c 0,-3.2 2.1,-5.4 4.9,-5.4 3,0 5,2.2 5,5 0,2.7 -2.1,5.1 -5,5.1 -2.1,0 -3.8,-1.1 -4.7,-3.3 h 1 c 0.6,1.3 1.9,2.1 3.3,2.1 0.1,0.1 0.2,0.1 0.2,0.1"
     class="A" />
  <defs
     id="defs59">
    <path
       d="m 19.6,12.6 h -6.2 c 0.3,-1.3 1.4,-2.1 3.1,-2.1 1.5,0 2.6,0.8 3.1,2.1 m 3.9,2.8 V 15 c 0,-4.9 -2.9,-7.9 -7.1,-7.9 -1.8,0 -3.5,0.8 -4.9,2.1 -1.3,1.3 -2,3 -2,4.9 0,1.9 0.7,3.5 2,4.9 1.4,1.4 3,2.1 5,2.1 3,0 5.2,-1.4 6.4,-4.2 h -4.3 c -0.6,0.5 -1.3,0.8 -2,0.8 -1.7,0 -2.7,-0.8 -3.1,-2.1 z"
       id="B" />
  </defs>
</svg>
