<svg xmlns="http://www.w3.org/2000/svg" xmlns:xlink="http://www.w3.org/1999/xlink" viewBox="0 0 204 88"><style><![CDATA[.A{fill:#fff}.B{fill:#F9D900}]]></style><path class="A" d="M68.5 21.8h-9.8c.4-2 2.3-3.3 4.9-3.3 2.4 0 4.1 1.2 4.9 3.3m6.2 4.4v-.7c0-7.8-4.6-12.6-11.3-12.6-2.9 0-5.6 1.2-7.8 3.3-2.1 2.1-3.2 4.8-3.2 7.7 0 3 1.1 5.6 3.1 7.8 2.2 2.3 4.7 3.4 7.9 3.4 4.7 0 8.2-2.2 10.2-6.6h-6.8c-.9.8-2 1.2-3.2 1.2-2.7 0-4.3-1.2-4.9-3.4l16-.1zm17.2-4.4H82c.4-2 2.3-3.3 4.9-3.3 2.5 0 4.2 1.2 5 3.3m6.2 4.4v-.7c0-7.8-4.6-12.6-11.3-12.6-2.9 0-5.6 1.2-7.8 3.3-2.1 2.1-3.2 4.8-3.2 7.7 0 3 1.1 5.6 3.1 7.8 2.2 2.3 4.7 3.4 7.9 3.4 4.7 0 8.2-2.2 10.2-6.6h-6.8c-.9.8-2 1.2-3.2 1.2-2.7 0-4.3-1.2-4.9-3.4l16-.1z"/><use xlink:href="#A" class="A"/><use xlink:href="#A" x="56.8" class="A"/><path class="A" d="M125 24c0 2.9-2.2 5.2-5 5.2-2.7 0-5-2.3-5-5.2s2.2-5.2 5-5.2 5 2.4 5 5.2m6.2-.1c0-2.9-1.2-5.8-3.4-7.9-2.1-2-4.7-3.1-7.8-3.1-2.9 0-5.6 1.2-7.8 3.3-2.1 2.1-3.2 4.8-3.2 7.7s1.1 5.6 3.1 7.8c2.2 2.3 4.7 3.4 7.9 3.4s5.8-1.1 8-3.3c2.1-2.1 3.2-4.7 3.2-7.9"/><path class="B" d="M140.7 20.5c-3-.2-5.4-2.6-5.5-5.6h13v-.1c0-5.1-3.3-8.5-7.8-8.5-4.8 0-8 3.5-8 8 0 4.3 3.4 8.1 7.9 8.1 3.3 0 6-1.8 7.4-5.3h-1.3c-.9 2-3 3.4-5.3 3.4h-.4m16.5 0c3-.2 5.4-2.6 5.5-5.6h-12.9v-.1c0-5.1 3.3-8.5 7.8-8.5 4.8 0 8 3.5 8 8 0 4.3-3.4 8.1-7.9 8.1-3.3 0-6-1.8-7.4-5.3h1.3c.9 2 3 3.4 5.3 3.4h.3"/><g class="A"><path d="M8 44c0 .8-.1 1.4-.4 2a3.04 3.04 0 0 1-1.2 1.3c-.5.3-1.1.5-1.7.5s-1.2-.2-1.7-.5A3.04 3.04 0 0 1 1.8 46c-.3-.6-.4-1.2-.4-2v-.4c0-.8.1-1.4.4-2A3.04 3.04 0 0 1 3 40.3c.5-.3 1-.5 1.7-.5s1.2.2 1.7.5.9.8 1.2 1.3c.3.6.4 1.3.4 2v.4zm-1.6-.4c0-.8-.1-1.4-.4-1.9-.3-.4-.7-.6-1.3-.6-.5 0-1 .2-1.2.6-.3.4-.4 1-.4 1.8v.5c0 .8.1 1.4.4 1.8s.7.7 1.3.7c.5 0 1-.2 1.2-.6.3-.4.4-1 .4-1.8v-.5zm6.1 3.5c-.4.5-.9.7-1.6.7-.6 0-1.1-.2-1.4-.5-.3-.4-.5-.9-.5-1.6v-3.8h1.5v3.7c0 .6.3.9.8.9s.9-.2 1.1-.5v-4.1H14v5.8h-1.5v-.6z"/><use xlink:href="#B"/><path d="M24.3 46.6c.3 0 .5-.1.7-.2.2-.2.3-.4.3-.6h1.4c0 .4-.1.8-.3 1.1a2.36 2.36 0 0 1-.9.8c-.4.2-.8.3-1.2.3-.8 0-1.5-.3-2-.8s-.7-1.3-.7-2.2v-.1c0-.9.2-1.6.7-2.1s1.1-.8 2-.8c.7 0 1.3.2 1.7.6s.7 1 .7 1.6h-1.4c0-.3-.1-.5-.3-.7s-.4-.3-.7-.3c-.4 0-.6.1-.8.4s-.3.7-.3 1.3v.2c0 .6.1 1 .3 1.3s.5.2.8.2zm6.8.5c-.4.5-.9.7-1.6.7-.6 0-1.1-.2-1.4-.5s-.5-.9-.5-1.6v-3.8h1.5v3.7c0 .6.3.9.8.9s.9-.2 1.1-.5v-4.1h1.5v5.8H31l.1-.6z"/><use xlink:href="#C"/><use xlink:href="#D"/><path d="M42.7 44.8c0-.6.1-1.1.3-1.5s.5-.8 1-1c.4-.2.9-.4 1.4-.4.8 0 1.4.2 1.9.7s.8 1.1.8 1.9v.4c0 .9-.2 1.6-.7 2.1s-1.2.8-2 .8-1.5-.3-2-.8-.7-1.2-.7-2.2zm1.5.1c0 .5.1 1 .3 1.3s.5.4.9.4.7-.1.9-.4.3-.7.3-1.4c0-.5-.1-1-.3-1.3s-.5-.4-.9-.4-.7.1-.9.4-.3.8-.3 1.4zm6.4-3v.6c.4-.5 1-.8 1.7-.8s1.3.3 1.5.9c.4-.6 1-.9 1.7-.9.6 0 1.1.2 1.4.5s.5.9.5 1.6v3.7h-1.5V44c0-.3-.1-.6-.2-.7-.1-.2-.4-.2-.7-.2-.5 0-.8.2-1 .7v4h-1.5V44c0-.3-.1-.6-.2-.7s-.4-.2-.7-.2c-.4 0-.8.2-1 .5v4.1h-1.5v-5.8h1.5zm10.6 5.9c-.8 0-1.5-.3-2.1-.8-.5-.5-.8-1.2-.8-2.1v-.1c0-.6.1-1.1.3-1.6s.5-.8 1-1.1c.4-.2.9-.4 1.4-.4.8 0 1.4.2 1.9.7s.7 1.2.7 2.1v.6h-3.7c0 .4.2.7.5.9a1.69 1.69 0 0 0 1 .3c.6 0 1.1-.2 1.4-.6l.8.8a2.36 2.36 0 0 1-.9.8c-.5.4-1 .5-1.5.5zm-.1-4.7c-.3 0-.6.1-.7.3s-.4.5-.4.9h2.1v-.1c0-.3-.1-.6-.3-.8s-.4-.3-.7-.3zm6.6.3h-.6c-.6 0-1 .2-1.1.6v3.8h-1.5V42H66v.7c.3-.5.7-.8 1.3-.8a.9.9 0 0 1 .5.1l-.1 1.4z"/><use xlink:href="#C" x="34.7"/><use xlink:href="#B" x="61.7"/><path d="M84 47.7c-.1-.1-.1-.3-.2-.5-.4.4-.9.6-1.5.6s-1-.2-1.4-.5-.6-.7-.6-1.2c0-.6.2-1.1.7-1.4s1.1-.5 2-.5h.7v-.3c0-.3-.1-.5-.2-.6 0-.2-.3-.3-.5-.3-.3 0-.5.1-.6.2s-.2.3-.2.5h-1.5c0-.3.1-.6.3-.9s.5-.5.9-.7.8-.2 1.3-.2c.7 0 1.3.2 1.7.5.4.4.6.9.6 1.5v2.5c0 .5.1 1 .2 1.2v.1H84zm-1.3-1.1c.2 0 .4-.1.6-.2a.78.78 0 0 0 .4-.4v-1h-.6c-.8 0-1.2.3-1.2.8v.1c0 .2.1.4.2.5.2.2.4.2.6.2zm5.7-6.1v1.4h1V43h-1v3c0 .2 0 .4.1.5s.2.1.5.1h.5v1.2c-.3.1-.6.1-.9.1-1.1 0-1.6-.5-1.7-1.6v-3.1H86v-1.1h.8v-1.4h1.6zm4.5 7.3c-.8 0-1.5-.3-2.1-.8-.5-.5-.8-1.2-.8-2v-.1c0-.6.1-1.1.3-1.6s.5-.8 1-1.1c.4-.2.9-.4 1.4-.4.8 0 1.4.2 1.9.7s.7 1.2.7 2.1v.6h-3.7c0 .4.2.7.5.9a1.69 1.69 0 0 0 1 .3c.6 0 1.1-.2 1.4-.6l.8.8a2.36 2.36 0 0 1-.9.8c-.6.3-1 .4-1.5.4zm-.2-4.7c-.3 0-.6.1-.7.3s-.3.5-.4.9h2.1v-.1c0-.3-.1-.6-.3-.8-.1-.2-.3-.3-.7-.3z"/><use xlink:href="#E"/><use xlink:href="#F"/><use xlink:href="#B" x="96"/><path d="M123.1 44.9c0 .9-.2 1.6-.6 2.1s-1 .8-1.6.8-1.1-.2-1.4-.6v2.7H118v-8h1.4l.1.6c.4-.4.9-.7 1.5-.7.7 0 1.3.3 1.7.8s.4 1.3.4 2.3zm-1.5-.1c0-.5-.1-1-.3-1.2-.2-.3-.5-.4-.8-.4a1 1 0 0 0-1 .6V46a1 1 0 0 0 1 .6c.7 0 1.1-.6 1.1-1.8z"/><use xlink:href="#B" x="108.9"/><use xlink:href="#E" x="29"/><path d="M133.8 44.8c0-.9.2-1.6.6-2.2s1-.8 1.7-.8c.6 0 1 .2 1.4.6v-3h1.5v8.2h-1.4l-.1-.6c-.4.5-.9.7-1.5.7-.7 0-1.2-.3-1.6-.8-.4-.4-.6-1.2-.6-2.1zm1.6.1c0 .5.1 1 .3 1.3s.5.4.8.4a1 1 0 0 0 1-.6v-2.3a1 1 0 0 0-1-.6c-.8 0-1.1.6-1.1 1.8z"/><use xlink:href="#F" x="35.2"/><use xlink:href="#G"/><use xlink:href="#D" x="112.7"/><use xlink:href="#H"/><path d="M166.6 43.7l1-1.7h1.7l-1.6 2.8 1.7 3h-1.7l-1-1.8-1 1.8H164l1.7-3-1.6-2.8h1.7l.8 1.7z"/><use xlink:href="#G" x="23.5"/><path d="M178.2 47.8c-.8 0-1.5-.3-2.1-.8-.5-.5-.8-1.2-.8-2.1v-.1c0-.6.1-1.1.3-1.6s.5-.8 1-1.1c.4-.2.9-.4 1.4-.4.8 0 1.4.2 1.9.7s.7 1.2.7 2.1v.6h-3.7c0 .4.2.7.5.9a1.69 1.69 0 0 0 1 .3c.6 0 1.1-.2 1.4-.6l.8.8a2.36 2.36 0 0 1-.9.8c-.5.4-1 .5-1.5.5zm-.1-4.7c-.3 0-.6.1-.7.3s-.3.5-.4.9h2.1v-.1c0-.3-.1-.6-.3-.8s-.4-.3-.7-.3zm5 4.6h-1.5v-8.2h1.5v8.2zm2.9 0h-1.5v-8.2h1.5v8.2z"/><use xlink:href="#H" x="28.8"/><path d="M194.6 41.9v.7c.4-.5 1-.8 1.7-.8.6 0 1.1.2 1.4.5.3.4.5.9.5 1.6v3.7h-1.5V44c0-.3-.1-.6-.2-.7s-.4-.2-.7-.2a1.1 1.1 0 0 0-1 .6v4.1h-1.5V42h1.3z"/><use xlink:href="#D" x="160"/></g><path d="M52 65.4h8.5l-6.9 4.9 2.7 8.1-6.9-5-6.8 5 2.6-8.1-6.8-4.9h8.4l2.6-8.1zm26.3 0h8.5l-6.9 4.9 2.7 8.1-6.9-5-6.8 5 2.6-8.1-6.9-4.9h8.5l2.6-8.1zm26.3 0h8.5l-6.9 4.9 2.6 8.1-6.8-5-6.8 5 2.6-8.1-6.9-4.9h8.5l2.6-8.1zm26.3 0h8.4l-6.8 4.9 2.6 8.1-6.8-5-6.8 5 2.6-8.1-6.9-4.9h8.5l2.6-8.1zm32.1 1.9l-4.2 3 2.6 8.1-6.8-5-6.9 5 2.7-8.1-6.9-4.9h8.5l2.6-8.1 2.6 8.1h5.8z" class="B"/><path d="M163 67.3l2.6-1.9H163z" class="A"/><defs><path id="A" d="M43.7 18.2v16.3h6.1V18.2h2.5v-4.7h-2.5V13c0-1.9.4-2.5 2.3-2.5h.2V6.2h-1c-5.2 0-7.6 2-7.6 6.5v.8h-2.3v4.7h2.3z"/><path id="B" d="M18.4 43.4h-.6c-.6 0-1 .2-1.1.6v3.8h-1.5V42h1.5v.7c.3-.5.7-.8 1.3-.8a.9.9 0 0 1 .5.1l-.1 1.4z"/><path id="C" d="M36.9 46.1c0-.2-.1-.3-.3-.4s-.5-.2-.9-.3c-1.4-.3-2.1-.9-2.1-1.8 0-.5.2-.9.6-1.3s1-.5 1.7-.5 1.3.2 1.8.5c.4.3.7.8.7 1.3h-1.5c0-.2-.1-.4-.2-.5s-.4-.2-.7-.2-.5.1-.6.2a.76.76 0 0 0-.2.4c0 .2.1.3.2.4.2.1.4.2.8.3l1 .3c.8.3 1.2.8 1.2 1.6 0 .5-.2 1-.7 1.3s-1 .5-1.8.5c-.5 0-.9-.1-1.3-.3s-.7-.4-.9-.7a1.69 1.69 0 0 1-.3-1h1.5c0 .3.1.5.3.6s.4.2.8.2c.3 0 .5-.1.7-.2s.2-.2.2-.4z"/><path id="D" d="M41.2 40.5v1.4h1V43h-1v3c0 .2 0 .4.1.5s.2.1.5.1h.5v1.2c-.3.1-.6.1-.9.1-1.1 0-1.6-.5-1.7-1.6v-3.1h-.8v-1.1h.8v-1.4h1.5z"/><path id="E" d="M98.6 44.8c0-.6.1-1.1.3-1.5s.5-.8 1-1c.4-.2.9-.4 1.4-.4.8 0 1.4.2 1.9.7s.8 1.1.8 1.9v.4c0 .9-.2 1.6-.7 2.1s-1.2.8-2 .8-1.5-.3-2-.8c-.4-.5-.7-1.2-.7-2.2zm1.6.1c0 .5.1 1 .3 1.3s.5.4.9.4.7-.1.9-.4.3-.7.3-1.4c0-.5-.1-1-.3-1.3s-.5-.4-.9-.4-.7.1-.9.4-.3.8-.3 1.4z"/><path id="F" d="M108.5 47.1c-.4.5-.9.7-1.6.7-.6 0-1.1-.2-1.4-.5s-.5-.9-.5-1.6v-3.8h1.5v3.7c0 .6.3.9.8.9s.9-.2 1.1-.5v-4.1h1.5v5.8h-1.5l.1-.6z"/><path id="G" d="M148.8 46.6c.3 0 .5-.1.7-.2.2-.2.3-.4.3-.6h1.4c0 .4-.1.8-.3 1.1a2.36 2.36 0 0 1-.9.8c-.4.2-.8.3-1.2.3-.8 0-1.5-.3-2-.8s-.7-1.3-.7-2.2v-.1c0-.9.2-1.6.7-2.1s1.1-.8 2-.8c.7 0 1.3.2 1.7.6s.7 1 .7 1.6h-1.4c0-.3-.1-.5-.3-.7s-.4-.3-.7-.3c-.4 0-.6.1-.8.4s-.3.7-.3 1.3v.2c0 .6.1 1 .3 1.3s.4.2.8.2z"/><path id="H" d="M161.2 47.8c-.8 0-1.5-.3-2.1-.8-.5-.5-.8-1.2-.8-2.1v-.1c0-.6.1-1.1.3-1.6s.5-.8 1-1.1c.4-.2.9-.4 1.4-.4.8 0 1.4.2 1.9.7s.7 1.2.7 2.1v.6h-3.7c0 .4.2.7.5.9a1.69 1.69 0 0 0 1 .3c.6 0 1.1-.2 1.4-.6l.8.8a2.36 2.36 0 0 1-.9.8c-.6.4-1.1.5-1.5.5zm-.2-4.7c-.3 0-.6.1-.7.3s-.3.5-.4.9h2.1v-.1c0-.3-.1-.6-.3-.8-.1-.2-.4-.3-.7-.3z"/></defs></svg>