<svg xmlns="http://www.w3.org/2000/svg" xmlns:xlink="http://www.w3.org/1999/xlink" viewBox="0 0 90.4 54.4"><style><![CDATA[.B{clip-path:url(#B);fill:#BD0034}.C{clip-path:url(#B);fill:#1A237B}]]></style><defs><path id="A" d="M3.6 3h83.2v48.5H3.6z"/></defs><clipPath id="B"><use xlink:href="#A"/></clipPath><path d="M3.6 3h83.2v48.5H3.6z" clip-path="url(#B)" fill="#fff"/><path d="M59.3 20.5L86.8 5.1V3h-1.9L53.6 20.5zM58 34.9L86.8 51v-3.2l-23-12.9zM3.6 6.7l24.6 13.8H34L3.6 3.4zm29.1 28.2L3.6 51.2v.3h5.3l29.5-16.6z" class="B"/><path d="M81.1 3H52v16.3zm-42 0h-29l29 16.3zm47.7 17.5V9.4L67 20.5zm0 25.4v-11H67zm-75 5.6h27.3V36.1zm40.2 0h27.4L52 36.1zM3.6 34.9v11.5l20.5-11.5zm0-14.4h20.5L3.6 9z" class="C"/><path d="M41.7 3v20.4H3.6V32h38.1v19.5h7.7V32h37.4v-8.6H49.4V3z" class="B"/></svg>