<svg xmlns="http://www.w3.org/2000/svg" xmlns:xlink="http://www.w3.org/1999/xlink" viewBox="0 0 90.4 54.4"><style><![CDATA[.B{clip-path:url(#B);fill:#fff}.C{clip-path:url(#B);fill:#EA0020}]]></style><defs><path id="A" d="M3.6 2.9h83.2v48.5H3.6z"/></defs><clipPath id="B"><use xlink:href="#A"/></clipPath><path d="M3.6 2.9h83.2v48.5H3.6z" clip-path="url(#B)" fill="#180087"/><path d="M25.5 32.7l1.3 3.9 3.8-1.5-2.3 3.5 3.6 2.1-4.1.3.5 4.1-2.8-3-2.9 3 .6-4.1-4.1-.3 3.5-2.1-2.2-3.5 3.8 1.5zm43.8 7l.6 1.9 1.8-.7-1.1 1.7 1.7 1-2 .1.3 2-1.3-1.4-1.4 1.4.3-2-2-.1 1.7-1-1.1-1.7 1.9.7zm-11-17.3l.6 1.9 1.9-.7-1.1 1.6 1.7 1-2 .2.3 2-1.4-1.5-1.3 1.5.2-2-1.9-.2 1.7-1-1.1-1.6 1.8.7zm11-11.8l.6 1.8 1.8-.7-1.1 1.7 1.7 1-2 .2.3 1.9-1.3-1.4-1.4 1.4.3-1.9-2-.2 1.7-1-1.1-1.7 1.9.7zm9.7 8.9l.6 1.9 1.8-.7-1.1 1.6 1.7 1-1.9.2.2 1.9L79 24l-1.4 1.4.3-1.9-2-.2 1.7-1-1.1-1.6 1.9.7zm-5.4 8.8l.5 1.1 1.3.1-1 .9.3 1.2-1.1-.7-1 .7.3-1.2-1-.9 1.3-.1zM21.8 2.9v7.3H3.6v7.3h18.2v7.3h7.3v-7.3h18.3v-7.3H29.1V2.9z" class="B"/><path d="M3.6 2.9v2.5l38.9 19.4h4.9v-2.4L8.5 2.9z" class="B"/><path d="M42.5 2.9L3.6 22.4v2.4h4.9L47.4 5.4V2.9z" class="B"/><path d="M23.3 2.9v8.8H3.6v4.4h19.7v8.7h4.4v-8.7h19.7v-4.4H27.7V2.9zm-19.7 0v1.6l11.3 5.7h3.3L3.6 2.9zm40.5 0l-14.6 7.3h3.3l14.6-7.3h-3.3zM18.2 17.5L3.6 24.8h3.3l14.6-7.3h-3.3zm14.6 0l14.6 7.3v-1.6L36 17.5h-3.2z" class="C"/></svg>