<svg xmlns="http://www.w3.org/2000/svg" xmlns:xlink="http://www.w3.org/1999/xlink" viewBox="0 0 90.4 54.4"><style><![CDATA[.A{clip-path:url(#B);fill:#EA0020}]]></style><defs><path id="A" d="M3.6 2.9h83.2v48.5H3.6z"/></defs><clipPath id="B"><use xlink:href="#A"/></clipPath><path d="M3.6 2.9h19.6v48.5H3.6zm63.6 0h19.6v48.5H67.2z" class="A"/><path d="M23.2 2.9h44v48.5h-44z" clip-path="url(#B)" fill="#fff"/><g clip-path="url(#B)"><defs><path id="C" d="M3.6 2.9h83.2v48.5H3.6z"/></defs><clipPath id="D"><use xlink:href="#C"/></clipPath><path d="M45.2 9.2l-2.9 5.6c-.3.6-.9.6-1.5.2l-2.1-1.1 1.6 8.6c.3 1.6-.7 1.6-1.2.9l-3.6-4.3-.6 2.2c-.1.3-.4.6-.8.5l-4.6-1 1.2 4.6c.3 1 .5 1.4-.3 1.7l-1.6.8 7.9 6.7c.3.3.5.7.4 1.1l-.7 2.4 7.9-.9c.2 0 .6.2.6.5l-.4 8.7h1.3l-.2-8.7c0-.3.4-.5.6-.5l7.9.9-.7-2.4c-.1-.4 0-.9.4-1.1l7.9-6.7-1.6-.8c-.7-.3-.5-.7-.3-1.7l1.2-4.6-4.6 1c-.5.1-.8-.2-.8-.5l-.6-2.1-3.6 4.3c-.5.7-1.6.7-1.2-.9l1.6-8.6-2.2 1c-.6.3-1.2.4-1.5-.2l-2.9-5.6z" clip-path="url(#D)" fill="#ea0020"/></g></svg>