<svg xmlns="http://www.w3.org/2000/svg" viewBox="0 0 40 40"><path d="M30.7 14.5c-.1-1.5-.7-2.7-1.7-3.7-1.1-1.1-2.5-1.5-3.9-1.6-2.6-.1-8.6-.2-10.7.1-2.4.4-4 1.8-4.6 4.2-.5 1.8-.4 10.2-.1 12.1.4 2.5 1.9 4.1 4.3 4.7 1.7.4 10 .4 11.9.1 2.5-.4 4.1-1.9 4.7-4.3.5-2 .3-10 .1-11.6zm-2 10.7c-.3 1.9-1.5 3-3.4 3.2-1.7.2-9.5.3-11.1-.2-1.5-.4-2.4-1.5-2.7-3-.2-1.5-.3-8.9 0-10.8s1.5-3 3.4-3.2 8.7-.2 10.6 0c1.9.3 3 1.5 3.2 3.4.3 1.8.3 8.7 0 10.6zm-8.5-10.9c-3 0-5.5 2.5-5.5 5.5s2.5 5.5 5.5 5.5 5.5-2.5 5.5-5.5-2.5-5.5-5.5-5.5zm-.1 9.1c-2 0-3.5-1.6-3.5-3.6s1.6-3.5 3.6-3.5 3.5 1.6 3.5 3.6c0 1.9-1.6 3.5-3.6 3.5zm7.1-9.3c0 .7-.6 1.3-1.3 1.3s-1.3-.6-1.3-1.3.6-1.3 1.3-1.3 1.3.6 1.3 1.3z" fill="#fff"/></svg>