<svg xmlns="http://www.w3.org/2000/svg" viewBox="0 0 51 32"><style><![CDATA[.C{fill-rule:evenodd;clip-rule:evenodd}]]></style><g fill-rule="evenodd"><path d="M25.2 26.8a13.91 13.91 0 0 0 9.5 3.7c7.8 0 14.2-6.4 14.2-14.2 0-8-6.3-14.3-14.2-14.3-3.6 0-7 1.4-9.5 3.7-2.9 2.6-4.7 6.4-4.7 10.6a14.91 14.91 0 0 0 4.7 10.5z" fill="#a9a9a9"/><path d="M29.8 14.7c0-.5-.1-1-.2-1.5h-8.7c.1-.5.2-1 .4-1.5h7.9l-.6-1.5h-6.7c.2-.5.5-1 .8-1.5h5c-.3-.5-.7-1-1.1-1.5h-2.9c.4-.5.9-1.1 1.4-1.5C22.7 3.4 19.4 2 15.7 2 7.9 2 1.5 8.3 1.5 16.2s6.4 14.2 14.2 14.2a13.91 13.91 0 0 0 9.5-3.7c.5-.5 1-1 1.4-1.5h-2.9c-.4-.5-.7-1-1.1-1.5h5c.3-.5.6-1 .8-1.5h-6.7l-.6-1.5H29c.2-.5.3-1 .4-1.5s.2-1 .2-1.5.1-1 .1-1.5c.2-.5.2-1 .1-1.5z" fill="#fff"/></g><path class="C" d="M47 19.5c0-.3.2-.5.4-.5a.47.47 0 0 1 .5.5c0 .2-.2.5-.5.5-.2 0-.4-.2-.4-.5zm.5.4c.2 0 .4-.1.4-.3s-.2-.3-.4-.3-.3.1-.3.3c-.1.1.1.3.3.3zm-.1-.2l-.1-.4h.3v.1s0 .1-.1.1l.1.2h-.1v-.1h-.1v.1-.1.1zm-12.8-6.8l-.3 1.6c-.5-.3-.9-.4-1.4-.4-1.2 0-2 1.1-2 2.7 0 1.1.5 1.8 1.4 1.8.4 0 .8-.1 1.3-.4l-.3 1.6c-.6.1-.9.2-1.3.2-1.7 0-2.7-1.2-2.7-3.1 0-2.6 1.4-4.4 3.5-4.4.3 0 .5 0 .7.1l.6.1c.3.2.4.2.5.2z"/><path class="C" d="M29.7 14h-.1c-.5 0-.8.2-1.3 1l.1-.9H27L26 20h1.5c.6-3.6.7-4.2 1.4-4.2h.1l.7-1.8zm-8.9 5.9c-.4.1-.8.2-1.1.2-.8 0-1.2-.4-1.2-1.3v-.5l.1-.6.1-.5.7-4h1.5l-.2.9h.8l-.2 1.4h-.8l-.4 2.5v.2c0 .3.1.4.5.4h.4l-.2 1.3zm-5.9-4c0 .7.3 1.2 1.2 1.6.6.3.7.4.7.6 0 .4-.3.5-.9.5-.5 0-.9-.1-1.4-.2l-.2 1.3h1.6c1.6 0 2.4-.6 2.4-2 0-.8-.3-1.3-1.1-1.6-.7-.3-.7-.4-.7-.6 0-.3.3-.5.8-.5.3 0 .7 0 1.1.1l.2-1.3c-.4-.1-1-.1-1.3-.1-1.8.2-2.4 1.1-2.4 2.2zm31.4 4h-1.4l.1-.6c-.4.4-.9.6-1.4.6-1.1 0-1.9-1-1.9-2.4 0-2 1.2-3.6 2.5-3.6.6 0 1.1.3 1.5.8l.3-2.1h1.5l-1.2 7.3zm-2.2-1.3c.7 0 1.2-.8 1.2-2 0-.8-.3-1.2-.8-1.2-.7 0-1.2.8-1.2 2 0 .8.2 1.2.8 1.2z"/><path class="C" d="M25.5 19.8c-.5.2-1 .2-1.6.2-1.7 0-2.6-.9-2.6-2.6 0-2 1.1-3.5 2.7-3.5 1.3 0 2.1.8 2.1 2.1 0 .4 0 .9-.2 1.5h-3v.2c0 .7.5 1 1.3 1 .6 0 1.1-.1 1.6-.4l-.3 1.5zm-.9-3.5V16c0-.5-.3-.8-.7-.8-.5 0-.8.4-1 1.1h1.7zM9.1 19.9H7.5l.9-5.5-2 5.5h-1l-.1-5.5-1 5.5H2.9l1.2-7.2h2.2l.1 4.5 1.5-4.5h2.4l-1.2 7.2zm3.8-2.6h-.3c-.9 0-1.3.3-1.3.9 0 .4.2.6.5.6.6 0 1-.6 1.1-1.5zm1.1 2.6h-1.3v-.6c-.4.5-.9.7-1.6.7-.8 0-1.4-.6-1.4-1.6 0-1.4 1-2.3 2.7-2.3h.6v-.4c0-.4-.3-.5-1-.5-.4 0-.9 0-1.3.1l-.2.1h-.1l.2-1.3c.8-.2 1.3-.3 1.8-.3 1.3 0 2 .6 2 1.7 0 .3 0 .5-.1 1.2l-.3 2.1v1.1zm23.1-2.6h-.3c-.9 0-1.3.3-1.3.9 0 .4.2.6.6.6.5 0 1-.6 1-1.5zm1.1 2.6h-1.3v-.6c-.4.5-.9.7-1.6.7-.8 0-1.4-.6-1.4-1.6 0-1.4 1-2.3 2.7-2.3h.6c0-.2.1-.3.1-.4 0-.4-.3-.5-1-.5-.4 0-1 0-1.3.1l-.2.1h-.1l.2-1.3c.8-.2 1.3-.3 1.8-.3 1.3 0 2 .6 2 1.7 0 .3 0 .5-.1 1.2l-.3 2.1v1.1h-.1zm4.1-5.9h-.1c-.5 0-.8.2-1.3 1l.1-.9h-1.4l-.9 5.9h1.5c.6-3.6.7-4.2 1.4-4.2h.1c.2-.8.4-1.3.6-1.8z"/></svg>