<svg xmlns="http://www.w3.org/2000/svg" viewBox="0 0 62.7 16.7" width="63" height="17"><path d="M42.3 0h-4.9c-.3 0-.6.2-.7.6l-2 12.5c0 .2.2.5.4.5h2.5c.2 0 .4-.2.5-.4l.6-3.5c.1-.3.3-.6.7-.6h1.5c3.2 0 5.1-1.6 5.5-4.6.2-1.3 0-2.4-.6-3.1C45.2.5 44 0 42.3 0zm.6 4.6c-.3 1.7-1.6 1.7-2.9 1.7h-.7l.5-3.3c0-.2.2-.3.4-.3h.3c.9 0 1.7 0 2.1.5.3.3.4.8.3 1.4zM7.6 0H2.7c-.3 0-.6.2-.7.6L0 13.1c0 .2.2.5.4.5h2.3c.3 0 .6-.2.7-.6l.5-3.4c.1-.3.3-.6.7-.6h1.5c3.2 0 5.1-1.6 5.5-4.6.2-1.3 0-2.4-.6-3.1C10.5.5 9.2 0 7.6 0zm.6 4.6c-.3 1.7-1.6 1.7-2.9 1.7h-.7L5.1 3c0-.2.2-.3.4-.3h.3c.9 0 1.7 0 2.1.5.3.3.4.8.3 1.4zm14-.1h-2.3c-.2 0-.4.1-.4.3l-.1.7-.2-.2c-.5-.7-1.6-1-2.8-1-2.6 0-4.8 2-5.2 4.7-.2 1.4.1 2.7.9 3.6.7.8 1.7 1.2 2.9 1.2 2.1 0 3.2-1.3 3.2-1.3l-.1.6c0 .2.2.5.4.5h2.1c.3 0 .6-.2.7-.6l1.3-8c0-.2-.2-.5-.4-.5zm-3.3 4.6c-.2 1.3-1.3 2.2-2.6 2.2-.7 0-1.2-.2-1.6-.6-.3-.4-.5-1-.4-1.6.2-1.3 1.3-2.2 2.6-2.2.7 0 1.2.2 1.6.6.4.3.5.9.4 1.6zm38-4.6h-2.3c-.2 0-.4.1-.4.3l-.1.7-.2-.2c-.5-.7-1.6-1-2.8-1-2.6 0-4.8 2-5.2 4.7-.2 1.4.1 2.7.9 3.6.7.8 1.7 1.2 2.9 1.2 2.1 0 3.2-1.3 3.2-1.3v.6c0 .2.2.5.4.5h2.1c.3 0 .6-.2.7-.6l1.3-8c-.1-.2-.3-.5-.5-.5zm-3.3 4.6c-.2 1.3-1.3 2.2-2.6 2.2-.7 0-1.2-.2-1.6-.6-.3-.4-.5-1-.4-1.6.2-1.3 1.3-2.2 2.6-2.2.7 0 1.2.2 1.6.6.4.3.5.9.4 1.6zm-19-4.6h-2.3c-.2 0-.4.1-.6.3l-3.2 4.8L27.1 5c-.1-.3-.3-.5-.6-.5h-2.3c-.3 0-.5.3-.4.5l2.6 7.6-2.5 3.5c-.2.3 0 .6.3.6h2.3c.2 0 .4-.1.6-.3l7.8-11.2c.2-.3 0-.7-.3-.7zm25-4.1l-2 12.7c0 .2.2.5.4.5h2c.3 0 .6-.2.7-.6l2-12.5c0-.2-.2-.5-.4-.5h-2.2c-.3 0-.4.2-.5.4z" fill="#fff"/></svg>