<svg xmlns="http://www.w3.org/2000/svg" viewBox="0 0 40 40"><path d="M16.6 25.3a4.43 4.43 0 0 1-4-3c.6.1 1.2.1 1.8-.1h.1c-1.2-.3-2.2-.9-2.8-2-.4-.7-.6-1.5-.6-2.3.6.3 1.2.5 1.9.5-.9-.7-1.5-1.5-1.8-2.6-.2-1.1-.1-2.1.5-3.1 2.3 2.7 5.3 4.3 8.9 4.5 0-.2-.1-.3-.1-.5-.1-1 .1-2 .6-2.8A4.09 4.09 0 0 1 24 12c1.4-.2 2.7.2 3.8 1.2.1.1.1.1.2.1.9-.2 1.7-.5 2.5-1h.1c-.3 1-1 1.8-1.8 2.3.8-.1 1.6-.3 2.4-.6-.2.2-.3.4-.5.6-.5.6-1 1.1-1.6 1.5l-.1.1c0 .6 0 1.3-.1 1.9-.2 1.3-.5 2.6-1.1 3.8-.6 1.3-1.4 2.4-2.3 3.4-1.6 1.7-3.6 2.8-5.9 3.3-.8.2-1.6.3-2.4.3-2.5.1-4.8-.5-6.9-1.9 0 0-.1 0-.1-.1 1.5.2 2.9 0 4.3-.6.8-.1 1.5-.5 2.1-1z" fill-rule="evenodd" fill="#fff"/></svg>