<svg xmlns="http://www.w3.org/2000/svg" viewBox="0 0 44 14.135" width="44" height="15"><path d="M44 14h-3.3c-.1-.6-.3-1.2-.4-1.7 0-.2-.1-.3-.4-.3h-4c-.2 0-.3.1-.3.2l-.6 1.6c0 .1-.1.2-.2.2h-3.6c.2-.5.4-1.1.7-1.6l4.6-11.1c.3-.8.8-1.1 1.7-1.1h2.9l.3 1.3 2.3 10.9c0 .6.2 1 .3 1.6 0-.1 0 0 0 0zm-4.4-4.9l-1.1-5-1.8 5zM29.5 0c.4.1.9.1 1.3.2l1.2.3-.6 2.9-1.6-.5c-.7-.2-1.5-.2-2.3 0-.3.1-.6.2-.8.5-.4.4-.4.9 0 1.2.3.3.6.5.9.7l2.2 1.3c.8.5 1.4 1.3 1.6 2.3.2 1.8-.4 3.2-2 4.2-1 .6-2 .9-3.2 1-1.6.1-3.1 0-4.6-.5-.1 0-.2-.1-.3-.1 0 0-.1 0-.1-.1l.6-3c.3.1.5.2.7.3 1.2.5 2.4.7 3.6.5.3-.1.7-.2.9-.4.6-.4.7-1.2.1-1.6-.4-.3-.8-.5-1.2-.8-.6-.4-1.3-.7-1.9-1.2-.8-.6-1.3-1.3-1.4-2.3-.2-1.5.4-2.7 1.5-3.6 1-.8 2.2-1.2 3.4-1.3zM16.6.2c-.2.4-.4.9-.5 1.3L11 13.7c-.1.2-.2.2-.4.2H7.4c-.2 0-.3-.1-.4-.3L4.3 2.9c-.2-.7-.5-1.1-1.1-1.4-1-.4-2-.7-3.1-1H0C0 .1 0 .1.4.1h5.7c.9 0 1.5.5 1.7 1.4L9.2 9c0 .1 0 .2.1.4 0-.1.1-.1.1-.2L12.9.3c.1-.2.1-.2.3-.2h3.3c-.1.1 0 .1.1.1zM15.2 14L18.1.2h3.6l-.4 2.1-2.4 11.4c-.1.3-.1.3-.4.3z" fill="#fff"/></svg>