<svg xmlns="http://www.w3.org/2000/svg" xmlns:xlink="http://www.w3.org/1999/xlink" viewBox="0 0 876.1 235.5"><style><![CDATA[.A{fill:#fff}.U{fill:#333}.V{fill:#FAFAFA}]]></style><path class="A" d="M857.9 129c2.4 2.5 3.6 5.4 3.6 8.8s-1.2 6.4-3.6 8.8-5.4 3.7-8.8 3.7-6.3-1.2-8.8-3.7c-2.4-2.4-3.7-5.4-3.7-8.8s1.2-6.3 3.6-8.8 5.4-3.7 8.9-3.7c3.5.1 6.4 1.3 8.8 3.7zm-15.7 1.8c-1.9 2-2.8 4.3-2.8 7.1s.9 5.1 2.9 7.1c1.9 2 4.2 2.9 6.9 2.9s5-1 6.9-2.9c1.9-2 2.9-4.3 2.9-7.1 0-2.7-.9-5.1-2.8-7-1.9-2-4.2-3-6.9-3-2.9 0-5.2.9-7.1 2.9zm9.8 4.9c-.4-1.5-1.3-2.2-2.7-2.2-1.2 0-2.1.5-2.8 1.5-.5.7-.7 1.7-.7 2.8 0 1.2.3 2.2.8 3 .6.8 1.5 1.3 2.7 1.3 1.5 0 2.5-.9 2.8-2.8h3.4c-.2 1.8-.8 3.2-2 4.3-1.1 1-2.6 1.6-4.5 1.6-2.1 0-3.7-.7-5-2.1-1.2-1.3-1.8-3.1-1.8-5.2 0-2 .6-3.7 1.8-5 1.3-1.5 3-2.2 5.2-2.2 1.8 0 3.3.6 4.5 1.7 1 1 1.6 2.2 1.7 3.5H852z"/><path d="M830 57.4h37.3L861.8 222h-25.5z" fill="#de2a63"/><path d="M539.3 54.1L560.7 222h-51.9l-4.1-167.9" fill="#1275bc"/><path d="M21.2 222L16.3 64.8h38.1L49.5 222z" fill="#cd1a4b"/><path d="M57.8 80.3h33.9L95.8 222H49.5z" fill="#e71e85"/><path d="M93.8 42.3h53.9L137.3 222h-36.6z" fill="#d73d2c"/><path d="M147.7 77.2h44.2V222h-57.4z" fill="#f59c1d"/><path d="M185 28.1h41.5V222h-28.4z" fill="#36a6de"/><path d="M280.4 222l-18-161.7h-37.3l7.6 161.7z" fill="#9d827b"/><path d="M264.5 24.7h53.9l2.8 197.3h-40.8z" fill="#8cc048"/><path d="M323.9 222l6.3-148.6h33.1l6.3 148.6" fill="#0f8f3f"/><path d="M366.8 34.7h54.6L415.9 222h-40.8z" fill="#ccd737"/><path d="M422.1 68.2h47L476 222h-63.6z" fill="#96c495"/><path d="M467 37.1h37.4l4.1 184.9h-27.7z" fill="#41aed5"/><path d="M539.1 18.8h54.6V222h-38z" fill="#8d2f88"/><path d="M645.4 10.9h39.4L677.2 222h-27z" fill="#d91b5e"/><path d="M688.2 64.8h33.9l5.5 157.2h-47z" fill="#ea5932"/><path d="M727.6 18.8h54.6L774.6 222h-39.4z" fill="#c4b49d"/><path d="M782.2 80.3h45.7l11 141.7h-66.3z" fill="#e72185"/><path d="M595.6 60.3l44.9-6.2L654.4 222h-63.6z" fill="#9b2462"/><path class="U" d="M840.5 136.4h-3v-2.1h8.6v2.1H843v9.1h-2.5v-9.1zm16.3 4.8l-.1-4.6-1.3 4.3-1.4 4.4h-2l-1.2-4.3c-.4-1.3-.7-2.9-1-4.4l-.2 4.6-.2 4.2h-2.3l.7-11.2h3.4l1.1 3.7a28.75 28.75 0 0 1 .9 4h.1l1.1-4 1.2-3.7h3.3l.6 11.2H857l-.2-4.2zm-739.4-12.5v49.7c.3 8 3.6 11.9 9.9 11.9 4.3 0 7.2-1.7 8.6-5 .8-2 1.3-5.2 1.3-9.7v-46.8H157v46.8c0 6.2-.6 11.1-2 14.9-1.1 3.2-3.1 6.2-5.8 8.9-5.4 5.5-12.7 8.4-21.7 8.4-8.4 0-15.1-2.1-20.2-6.3-5.1 4.2-11.6 6.3-19.3 6.3-9.7 0-17.2-2.7-22.3-8.3-3-3.3-5.1-6.8-6.3-10.2-.9-3.1-1.5-7.6-1.5-13.6v-46.8h19.8v46.8c0 9.8 3.3 14.7 10 14.7 6.3 0 9.5-3.8 9.8-11.3v-1.7c0-.8-.1-1.5-.1-1.8v-46.8h20zm87.6 77.5V203c-4.6 2.3-9.5 3.5-14.7 3.5-8.9 0-16.4-2.9-22.7-8.9s-9.4-13.2-9.4-21.7 3.1-15.7 9.4-21.7 13.8-9 22.7-9c9.1 0 16.6 2.8 22.8 8.5 6.2 5.6 9.3 13.1 9.3 22.2v30.3H205zm-3.8-40.3c-2.7-3.1-6.4-4.7-11-4.7s-8.3 1.7-10.9 5c-2.3 2.8-3.5 6.2-3.5 9.9 0 3.5 1.2 6.5 3.3 9.3 2.7 3.6 6.4 5.3 11.1 5.3 4.9 0 8.7-1.8 11.4-5.3 2.1-2.8 3.1-6 3.1-9.5.2-3.8-1-7.2-3.5-10zm45.5 20.6c1.9 2.1 4.3 3.1 7.2 3.1v17.7c-7.7 0-14.2-2.7-19.5-8.2-5.2-5.5-7.8-12.1-7.8-20v-50.5H244V179c0 3 1 5.5 2.7 7.5zm29.3 0c1.9 2.1 4.3 3.1 7.2 3.1v17.7c-7.7 0-14.2-2.7-19.5-8.2-5.2-5.5-7.8-12.1-7.8-20v-50.5h17.4V179c0 3 .9 5.5 2.7 7.5zm39.3-22.2c-.3-2.9-2.1-4.4-5.4-4.4-3.2 0-4.9 1.3-4.9 3.9 0 2.5 2.9 4.6 8.9 6.3 6.6 1.9 11.2 3.7 13.8 5.4 4.3 2.9 6.5 7.2 6.5 12.8 0 6-2.3 10.7-6.8 14.3-4.6 3.7-10.2 5.4-16.8 5.4-5.5 0-10.5-1.3-14.5-3.9-5.3-3.5-8.4-8.6-9.1-15.4h17.3c.5 3.6 2.7 5.3 6.6 5.3 1.6 0 2.9-.4 4.2-1.3 1.3-.8 1.9-1.9 1.9-3.2 0-2-1.3-3.6-3.6-4.8-.8-.4-4.8-2-11.8-4.5-9.2-3.2-13.8-8.4-13.8-15.2 0-5.5 2.2-10.2 6.7-13.9 4.3-3.6 9.6-5.2 15.8-5.2 5.1 0 9.6 1.1 13.4 3.5 5.2 3.1 8.2 8.1 8.9 14.9h-17.3zm68.5 41.9V203c-4.6 2.3-9.5 3.5-14.7 3.5-8.9 0-16.4-2.9-22.7-8.9s-9.4-13.2-9.4-21.7 3.1-15.7 9.4-21.7 13.8-9 22.7-9c9.1 0 16.6 2.8 22.8 8.5 6.2 5.6 9.3 13.1 9.3 22.2v30.3h-17.4zm-3.8-40.3c-2.7-3.1-6.4-4.7-11-4.7s-8.3 1.7-10.9 5c-2.3 2.8-3.5 6.2-3.5 9.9 0 3.5 1.2 6.5 3.3 9.3 2.7 3.6 6.4 5.3 11.1 5.3 4.9 0 8.7-1.8 11.4-5.3 2.1-2.8 3.1-6 3.1-9.5.1-3.8-1.1-7.2-3.5-10zm35.8 34.7c-5.1-5.2-7.7-11.5-7.7-18.9v-33.5h17.4v35.2c0 2.6.9 4.7 2.7 6.5 1.9 1.8 4.2 2.7 6.8 2.7s4.9-.9 6.8-2.7c1.9-1.9 2.8-4.1 2.8-6.7v-35h16.8l.1 33.5c0 7.4-2.6 13.7-7.8 18.8-5.3 5.2-11.6 7.8-19 7.8h-.1c-7.6.1-13.7-2.6-18.8-7.7z"/><use xlink:href="#B" class="U"/><path class="U" d="M587.5 182.3H544c.5 3.3 2 6.1 4.5 7.9 2.6 2 5.6 3 9.1 3 4.2 0 7.7-1.8 10.6-5.4H586c-2.6 6-6.4 10.9-11.2 14.4-5.1 3.8-10.8 5.6-17.2 5.6-8.4 0-15.6-2.9-21.6-8.9-6.1-6-9.1-13.3-9.1-21.9 0-8.3 2.9-15.6 8.7-21.8 5.9-6.3 13.1-9.4 21.8-9.4 8.8 0 16.1 3 21.9 9.1 5.9 6.2 8.8 13.7 8.8 22.6-.2 1.5-.3 3-.6 4.8zm-20.4-18c-2.5-2.4-5.8-3.7-9.7-3.7-4 0-7.2 1.3-9.7 3.7-1.8 1.8-2.9 3.9-3.5 6.3h26.4c-.6-2.4-1.7-4.5-3.5-6.3zm45.6 41.8h-18.1v-17.8h18.1v17.8z"/><use xlink:href="#C" class="U"/><path class="U" d="M732.3 197.7c-5.9 6.7-13.7 10.1-23.5 10.1s-17.7-3.5-23.5-10.1c-5.1-5.9-7.7-12.8-7.7-20.7s2.6-14.9 7.7-20.8c5.9-6.7 13.7-10 23.5-10s17.7 3.3 23.5 10c5.1 6 7.7 12.9 7.7 20.8.1 7.9-2.5 14.8-7.7 20.7zm-13.7-31.2c-2.7-2.8-6-4.2-9.8-4.2-3.9 0-7.1 1.4-9.8 4.2s-4.1 6.3-4.1 10.5 1.4 7.6 4.1 10.5c2.7 2.8 6 4.2 9.8 4.2 3.9 0 7.1-1.4 9.8-4.2s4.1-6.3 4.1-10.5-1.3-7.7-4.1-10.5zm89-20.2c7.3 0 13.5 2.6 18.6 7.7 5.1 5.2 7.7 11.5 7.7 18.8v33.3h-17.4v-34.9c0-2.6-.9-4.8-2.7-6.6s-4.1-2.6-6.7-2.6c-2.3 0-4.4.9-6.4 2.9s-2.9 4.2-2.9 6.4v34.8h-17.2v-34.9c0-2.6-.9-4.8-2.7-6.6s-4.1-2.6-6.7-2.6-4.8.9-6.7 2.7-2.8 4-2.8 6.6l.1 34.8H745v-33.3c0-7.3 2.6-13.6 7.8-18.7 5.2-5.2 11.5-7.8 18.8-7.8 6.9 0 12.9 2.3 17.9 7 5.2-4.7 11.1-7 18.1-7z"/><path class="V" d="M841.3 135.6h-3v-2.1h8.6v2.1h-3.1v9.1h-2.5v-9.1zm16.3 4.8l-.1-4.6-1.3 4.3-1.4 4.4h-2l-1.2-4.3c-.4-1.3-.7-2.9-1-4.4l-.2 4.6-.2 4.2h-2.3l.7-11.2h3.4l1.1 3.7c.4 1.3.7 2.7.9 4h.1l1.1-4 1.2-3.7h3.3l.6 11.2h-2.5l-.2-4.2z"/><path class="A" d="M120 126.7v49.7c.3 8 3.6 11.9 9.9 11.9 4.3 0 7.2-1.7 8.6-5 .8-2 1.3-5.2 1.3-9.7v-46.8h19.8v46.8c0 6.2-.6 11.1-2 14.9-1.1 3.2-3.1 6.2-5.8 8.9-5.4 5.5-12.7 8.4-21.7 8.4-8.4 0-15.1-2.1-20.2-6.3-5.1 4.2-11.6 6.3-19.3 6.3-9.7 0-17.2-2.7-22.3-8.3-3-3.3-5.1-6.8-6.3-10.2-.9-3.1-1.5-7.6-1.5-13.6v-46.8h19.8v46.8c0 9.8 3.3 14.7 10 14.7 6.3 0 9.5-3.8 9.8-11.3v-1.7c0-.8-.1-1.5-.1-1.8v-46.8h20z"/><use xlink:href="#D" class="A"/><path class="A" d="M249.4 184.5c1.9 2.1 4.3 3.1 7.2 3.1v17.7c-7.7 0-14.2-2.7-19.5-8.2-5.2-5.5-7.8-12.1-7.8-20v-50.5h17.4V177c0 3 .9 5.5 2.7 7.5zm29.3 0c1.9 2.1 4.3 3.1 7.2 3.1v17.7c-7.7 0-14.2-2.7-19.5-8.2-5.2-5.5-7.8-12.1-7.8-20v-50.5H276V177c0 3 .9 5.5 2.7 7.5zm39.3-22.2c-.3-2.9-2.1-4.4-5.4-4.4-3.2 0-4.9 1.3-4.9 3.9 0 2.5 2.9 4.6 8.9 6.3 6.6 1.9 11.2 3.7 13.8 5.4 4.3 2.9 6.5 7.2 6.5 12.8 0 6-2.3 10.7-6.8 14.3-4.6 3.7-10.2 5.4-16.8 5.4-5.5 0-10.5-1.3-14.5-3.9-5.3-3.5-8.4-8.6-9.1-15.4H307c.5 3.6 2.7 5.3 6.6 5.3 1.6 0 2.9-.4 4.2-1.3 1.3-.8 1.9-1.9 1.9-3.2 0-2-1.3-3.6-3.6-4.8-.8-.4-4.8-2-11.8-4.5-9.2-3.2-13.8-8.4-13.8-15.2 0-5.5 2.2-10.2 6.7-13.9 4.3-3.6 9.6-5.2 15.8-5.2 5.1 0 9.6 1.1 13.4 3.5 5.2 3.1 8.2 8.1 8.9 14.9H318z"/><use xlink:href="#D" x="178.7" class="A"/><path class="A" d="M418.4 198.6c-5.1-5.2-7.7-11.5-7.7-18.9v-33.5H428v35.2c0 2.6.9 4.7 2.7 6.5 1.9 1.8 4.2 2.7 6.8 2.7s4.9-.9 6.8-2.7c1.9-1.9 2.8-4.1 2.8-6.7v-35H464l.1 33.5c0 7.4-2.6 13.7-7.8 18.8-5.3 5.2-11.6 7.8-19 7.8h-.1c-7.5.1-13.7-2.5-18.8-7.7z"/><use xlink:href="#B" x="2.7" y="-2" class="A"/><path class="A" d="M590.1 180.3h-43.5c.5 3.3 2 6.1 4.5 7.9 2.6 2 5.6 3 9.1 3 4.2 0 7.7-1.8 10.6-5.4h17.8c-2.6 6-6.4 10.9-11.2 14.4-5.1 3.8-10.8 5.6-17.2 5.6-8.4 0-15.6-2.9-21.6-8.9-6.1-6-9.1-13.3-9.1-21.9 0-8.3 2.9-15.6 8.7-21.8 5.9-6.3 13.1-9.4 21.8-9.4 8.8 0 16.1 3 21.9 9.1 5.9 6.2 8.8 13.7 8.8 22.6-.1 1.5-.2 3-.6 4.8zm-20.4-18c-2.5-2.4-5.8-3.7-9.7-3.7-4 0-7.2 1.3-9.7 3.7-1.8 1.8-2.9 3.9-3.5 6.3h26.4c-.5-2.4-1.7-4.5-3.5-6.3zm45.6 41.8h-18.1v-17.8h18.1v17.8z"/><use xlink:href="#C" x="2.7" y="-2" class="A"/><path class="A" d="M735 195.7c-5.9 6.7-13.7 10.1-23.5 10.1s-17.7-3.5-23.5-10.1c-5.1-5.9-7.7-12.8-7.7-20.7s2.6-14.9 7.7-20.8c5.9-6.7 13.7-10 23.5-10s17.7 3.3 23.5 10c5.1 6 7.7 12.9 7.7 20.8s-2.6 14.8-7.7 20.7zm-13.7-31.2c-2.7-2.8-6-4.2-9.8-4.2-3.9 0-7.1 1.4-9.8 4.2s-4.1 6.3-4.1 10.5 1.4 7.6 4.1 10.5c2.7 2.8 6 4.2 9.8 4.2 3.9 0 7.1-1.4 9.8-4.2s4.1-6.3 4.1-10.5-1.4-7.6-4.1-10.5zm89-20.2c7.3 0 13.5 2.6 18.6 7.7 5.1 5.2 7.7 11.5 7.7 18.8v33.3h-17.4v-34.9c0-2.6-.9-4.8-2.7-6.6s-4.1-2.6-6.7-2.6c-2.3 0-4.4.9-6.4 2.9s-2.9 4.2-2.9 6.4v34.8h-17.2v-34.9c0-2.6-.9-4.8-2.7-6.6s-4.1-2.6-6.7-2.6-4.8.9-6.7 2.7-2.8 4-2.8 6.6l.1 34.8h-16.9v-33.3c0-7.3 2.6-13.6 7.8-18.7 5.2-5.2 11.5-7.8 18.8-7.8 6.9 0 12.9 2.3 17.9 7 5.2-4.7 11.2-7 18.2-7z"/><defs ><path id="B" d="M527.1 184c-1.6 6.8-5 12.6-10.5 16.9-5.6 4.7-12.3 7-20 7-8.7 0-16.1-3-22.1-9-6-6.1-9-13.4-9-22.1 0-8.6 2.9-15.9 8.8-21.9 6-6 13.2-9 21.9-9 7.6 0 14.3 2.3 20 6.8 5.8 4.5 9.3 10.4 10.8 17.6h-17.6c-2.5-5.3-6.7-7.9-12.6-8.2-4.1-.1-7.3 1.3-9.9 4.1s-3.9 6.4-3.9 10.7 1.3 7.7 3.8 10.6c2.6 2.8 6 4.2 10 4.2 5.6 0 9.8-2.6 12.6-7.7h17.7z"/><path id="C" d="M677.4 184c-1.6 6.8-5 12.6-10.5 16.9-5.6 4.7-12.3 7-20 7-8.7 0-16.1-3-22.1-9-6-6.1-9-13.4-9-22.1 0-8.6 2.9-15.9 8.8-21.9 6-6 13.2-9 21.9-9 7.6 0 14.3 2.3 20 6.8 5.8 4.5 9.3 10.4 10.8 17.6h-17.6c-2.5-5.3-6.7-7.9-12.5-8.2-4.1-.1-7.3 1.3-9.9 4.1s-3.9 6.4-3.9 10.7 1.3 7.7 3.8 10.6c2.6 2.8 6 4.2 10 4.2 5.6 0 9.8-2.6 12.5-7.7h17.7z"/><path id="D" d="M207.7 204.2V201c-4.6 2.3-9.5 3.5-14.7 3.5-8.9 0-16.4-2.9-22.7-8.9s-9.4-13.2-9.4-21.7 3.1-15.7 9.4-21.7 13.8-9 22.7-9c9.1 0 16.6 2.8 22.8 8.5 6.2 5.6 9.3 13.1 9.3 22.2v30.3h-17.4zm-3.8-40.3c-2.7-3.1-6.4-4.7-11-4.7s-8.3 1.7-10.9 5c-2.3 2.8-3.5 6.2-3.5 9.9 0 3.5 1.2 6.5 3.3 9.3 2.7 3.6 6.4 5.3 11.1 5.3 4.9 0 8.7-1.8 11.4-5.3 2.1-2.8 3.1-6 3.1-9.5.2-3.8-1.1-7.2-3.5-10z"/></defs></svg>