<svg xmlns="http://www.w3.org/2000/svg" xmlns:xlink="http://www.w3.org/1999/xlink" viewBox="0 0 232.7 23.9" width="233" height="24"><style>.A{fill:#525251}</style><g fill="#525251" class="A"><path d="M17.8 0v14.8c.1 2.4 1.1 3.6 3 3.6 1.3 0 2.2-.5 2.6-1.5.3-.6.4-1.6.4-2.9V0h5.9v14c0 1.8-.2 3.3-.6 4.5-.3 1-.9 1.9-1.7 2.7-1.7 1.6-3.8 2.5-6.5 2.5-2.5 0-4.5-.6-6.1-1.9-1.5 1.3-3.5 1.9-5.8 1.9-2.9 0-5.1-.8-6.7-2.5-.9-1-1.5-2-1.9-3.1-.3-.9-.4-2.3-.4-4.1V0h5.9v14c0 2.9 1 4.4 3 4.4 1.9 0 2.9-1.1 2.9-3.4V0zm26.3 23.3v-1c-1.4.7-2.9 1-4.4 1-2.7 0-4.9-.9-6.8-2.7s-2.8-4-2.8-6.5.9-4.7 2.8-6.5 4.1-2.7 6.8-2.7 5 .8 6.8 2.5c1.9 1.7 2.8 3.9 2.8 6.6v9.1h-5.2zM43 11.2c-.8-.9-1.9-1.4-3.3-1.4s-2.5.5-3.3 1.5c-.7.8-1 1.9-1 3 0 1 .3 1.9 1 2.8.8 1.1 1.9 1.6 3.3 1.6 1.5 0 2.6-.5 3.4-1.6.6-.8.9-1.8.9-2.9.1-1.1-.3-2.1-1-3z"/><use xlink:href="#A" x="-50.3" y="-7.3"/><use xlink:href="#A" x="-41.5" y="-7.3"/><path d="M77.2 10.7c-.1-.9-.6-1.3-1.6-1.3s-1.5.4-1.5 1.2.9 1.4 2.7 1.9c2 .6 3.4 1.1 4.1 1.6 1.3.9 1.9 2.2 1.9 3.8 0 1.8-.7 3.2-2 4.3-1.4 1.1-3.1 1.6-5 1.6-1.7 0-3.1-.4-4.4-1.2-1.6-1-2.5-2.6-2.7-4.6h5.2c.2 1.1.8 1.6 2 1.6.5 0 .9-.1 1.3-.4s.6-.6.6-1c0-.6-.4-1.1-1.1-1.4l-3.5-1.3c-2.8-1-4.1-2.5-4.1-4.5 0-1.7.7-3.1 2-4.2s2.9-1.6 4.7-1.6c1.5 0 2.9.3 4 1 1.6.9 2.4 2.4 2.7 4.5zm20.5 12.6v-1c-1.4.7-2.9 1-4.4 1-2.7 0-4.9-.9-6.8-2.7s-2.8-4-2.8-6.5.9-4.7 2.8-6.5 4.1-2.7 6.8-2.7 5 .8 6.8 2.5c1.9 1.7 2.8 3.9 2.8 6.6v9.1h-5.2zm-1.1-12.1c-.8-.9-1.9-1.4-3.3-1.4s-2.5.5-3.3 1.5c-.7.8-1 1.9-1 3 0 1 .3 1.9 1 2.8.8 1.1 1.9 1.6 3.3 1.6 1.5 0 2.6-.5 3.4-1.6.6-.8.9-1.8.9-2.9.1-1.1-.3-2.1-1-3zm10.7 10.4c-1.5-1.6-2.3-3.4-2.3-5.7v-10h5.2v10.6c0 .8.3 1.4.8 1.9.6.5 1.3.8 2 .8.8 0 1.5-.3 2-.8.6-.6.8-1.2.8-2V5.9h5v10c0 2.2-.8 4.1-2.4 5.6-1.6 1.6-3.5 2.4-5.7 2.4-2 0-3.9-.7-5.4-2.3z"/><use xlink:href="#B" x="-50.3" y="-7.3"/><path d="M158.8 16.1h-13c.2 1 .6 1.8 1.3 2.4.8.6 1.7.9 2.7.9 1.3 0 2.3-.5 3.2-1.6h5.3c-.8 1.8-1.9 3.3-3.4 4.3-1.5 1.1-3.2 1.7-5.1 1.7a8.91 8.91 0 0 1-6.5-2.7c-1.8-1.8-2.7-4-2.7-6.6 0-2.5.9-4.7 2.6-6.5 1.8-1.9 3.9-2.8 6.5-2.8s4.8.9 6.6 2.7 2.6 4.1 2.6 6.8c0 .4 0 .9-.1 1.4zm-6.1-5.4a4.17 4.17 0 0 0-2.9-1.1c-1.2 0-2.2.4-2.9 1.1-.5.5-.9 1.2-1 1.9h7.9c-.2-.7-.6-1.3-1.1-1.9zm13.6 12.6h-5.4V18h5.4z"/><use xlink:href="#B" x="-5.2" y="-7.3"/><path d="M202.2 20.7c-1.8 2-4.1 3-7.1 3-2.9 0-5.3-1-7.1-3-1.5-1.8-2.3-3.8-2.3-6.2s.8-4.5 2.3-6.2c1.8-2 4.1-3 7.1-3 2.9 0 5.3 1 7.1 3 1.5 1.8 2.3 3.9 2.3 6.2 0 2.4-.7 4.5-2.3 6.2zm-4.1-9.3c-.8-.8-1.8-1.3-2.9-1.3-1.2 0-2.1.4-2.9 1.3-.8.8-1.2 1.9-1.2 3.1 0 1.3.4 2.3 1.2 3.1s1.8 1.3 2.9 1.3c1.2 0 2.1-.4 2.9-1.3.8-.8 1.2-1.9 1.2-3.1s-.4-2.3-1.2-3.1zm26.7-6.1c2.2 0 4 .8 5.6 2.3 1.5 1.6 2.3 3.4 2.3 5.6v10h-5.2V12.8c0-.8-.3-1.4-.8-2-.5-.5-1.2-.8-2-.8-.7 0-1.3.3-1.9.9s-.9 1.3-.9 1.9v10.4h-5.2V12.8c0-.8-.3-1.4-.8-2-.5-.5-1.2-.8-2-.8s-1.4.3-2 .8-.8 1.2-.8 2v10.4H206v-10c0-2.2.8-4.1 2.4-5.6 1.6-1.6 3.4-2.4 5.6-2.4 2.1 0 3.9.7 5.4 2.1 1.5-1.3 3.3-2 5.4-2z"/></g><defs><path id="A" d="M106.9 24.7c.6.6 1.3.9 2.2.9v5.3c-2.3 0-4.3-.8-5.8-2.4-1.6-1.7-2.4-3.6-2.4-6V7.3h5.2v15.1c0 .9.3 1.7.8 2.3z"/><path id="B" d="M191 23.9c-.5 2-1.5 3.8-3.1 5.1-1.7 1.4-3.7 2.1-6 2.1-2.6 0-4.8-.9-6.6-2.7s-2.7-4-2.7-6.6.9-4.8 2.6-6.6c1.8-1.8 4-2.7 6.6-2.7 2.3 0 4.3.7 6 2s2.8 3.1 3.2 5.3h-5.3c-.8-1.6-2-2.4-3.8-2.4-1.2 0-2.2.4-3 1.2s-1.2 1.9-1.2 3.2a4.96 4.96 0 0 0 1.1 3.2c.8.8 1.8 1.3 3 1.3 1.7 0 2.9-.8 3.8-2.3h5.4z"/></defs></svg>